<svg width="128" height="128" viewBox="0 0 128 128" fill="none" xmlns="http://www.w3.org/2000/svg">
  <defs>
    <linearGradient id="paint0" x1="16" y1="12" x2="116" y2="116" gradientUnits="userSpaceOnUse">
      <stop stop-color="#31C4F3" />
      <stop offset="0.5" stop-color="#64D9FF" />
      <stop offset="1" stop-color="#9B5CFF" />
    </linearGradient>
    <linearGradient id="paint1" x1="40" y1="24" x2="96" y2="96" gradientUnits="userSpaceOnUse">
      <stop stop-color="#F8FAFF" stop-opacity="0.9" />
      <stop offset="1" stop-color="#CDEBFF" stop-opacity="0.3" />
    </linearGradient>
  </defs>
  <rect x="8" y="8" width="112" height="112" rx="28" fill="#0B1626" />
  <rect x="8" y="8" width="112" height="112" rx="28" fill="url(#paint0)" opacity="0.14" />
  <path d="M38 72c0-17.673 14.327-32 32-32 8.672 0 16.544 3.404 22.34 8.94" stroke="url(#paint0)" stroke-width="8" stroke-linecap="round" />
  <path d="M90 56c0 17.673-14.327 32-32 32-8.672 0-16.544-3.404-22.34-8.94" stroke="url(#paint1)" stroke-width="8" stroke-linecap="round" />
  <path d="M64 37c0 1.933-1.567 3.5-3.5 3.5S57 38.933 57 37s1.567-3.5 3.5-3.5S64 35.067 64 37Z" fill="#F8FAFF" />
  <path d="M82.5 64c0 1.933-1.567 3.5-3.5 3.5s-3.5-1.567-3.5-3.5 1.567-3.5 3.5-3.5 3.5 1.567 3.5 3.5Z" fill="#F8FAFF" />
  <path d="M50.5 89c0 1.933-1.567 3.5-3.5 3.5s-3.5-1.567-3.5-3.5 1.567-3.5 3.5-3.5 3.5 1.567 3.5 3.5Z" fill="#F8FAFF" />
</svg>
